<?xml version="1.0" encoding="utf-8" standalone="no"?>
<!DOCTYPE svg PUBLIC "-//W3C//DTD SVG 1.1//EN"
  "http://www.w3.org/Graphics/SVG/1.1/DTD/svg11.dtd">
<!-- Created with matplotlib (http://matplotlib.org/) -->
<svg height="345.6pt" version="1.1" viewBox="0 0 460.8 345.6" width="460.8pt" xmlns="http://www.w3.org/2000/svg" xmlns:xlink="http://www.w3.org/1999/xlink">
 <defs>
  <style type="text/css">
*{stroke-linecap:butt;stroke-linejoin:round;}
  </style>
 </defs>
 <g id="figure_1">
  <g id="patch_1">
   <path d="M 0 345.6 
L 460.8 345.6 
L 460.8 0 
L 0 0 
z
" style="fill:#ffffff;"/>
  </g>
  <g id="axes_1">
   <g id="LineCollection_1">
    <path clip-path="url(#p0b1eb1b09b)" d="M 241.874334 164.845388 
L 256.212589 184.706044 
" style="fill:none;stroke:#292929;"/>
    <path clip-path="url(#p0b1eb1b09b)" d="M 241.874334 164.845388 
L 287.474221 202.44296 
" style="fill:none;stroke:#292929;"/>
    <path clip-path="url(#p0b1eb1b09b)" d="M 241.874334 164.845388 
L 153.955546 187.684509 
" style="fill:none;stroke:#292929;"/>
    <path clip-path="url(#p0b1eb1b09b)" d="M 241.874334 164.845388 
L 341.589619 132.72215 
" style="fill:none;stroke:#292929;"/>
    <path clip-path="url(#p0b1eb1b09b)" d="M 241.874334 164.845388 
L 205.351686 224.077718 
" style="fill:none;stroke:#292929;"/>
    <path clip-path="url(#p0b1eb1b09b)" d="M 241.874334 164.845388 
L 216.204599 165.248239 
" style="fill:none;stroke:#292929;"/>
    <path clip-path="url(#p0b1eb1b09b)" d="M 241.874334 164.845388 
L 251.15363 145.509226 
" style="fill:none;stroke:#292929;"/>
    <path clip-path="url(#p0b1eb1b09b)" d="M 241.874334 164.845388 
L 196.852324 138.26195 
" style="fill:none;stroke:#292929;"/>
    <path clip-path="url(#p0b1eb1b09b)" d="M 241.874334 164.845388 
L 247.726749 209.771985 
" style="fill:none;stroke:#292929;"/>
    <path clip-path="url(#p0b1eb1b09b)" d="M 241.874334 164.845388 
L 227.930673 186.534168 
" style="fill:none;stroke:#292929;"/>
    <path clip-path="url(#p0b1eb1b09b)" d="M 241.874334 164.845388 
L 267.696365 160.526347 
" style="fill:none;stroke:#292929;"/>
    <path clip-path="url(#p0b1eb1b09b)" d="M 241.874334 164.845388 
L 244.624671 133.115251 
" style="fill:none;stroke:#292929;"/>
    <path clip-path="url(#p0b1eb1b09b)" d="M 241.874334 164.845388 
L 224.793527 142.097887 
" style="fill:none;stroke:#292929;"/>
    <path clip-path="url(#p0b1eb1b09b)" d="M 241.874334 164.845388 
L 237.687022 98.467993 
" style="fill:none;stroke:#292929;"/>
    <path clip-path="url(#p0b1eb1b09b)" d="M 287.474221 202.44296 
L 319.632263 193.579266 
" style="fill:none;stroke:#292929;"/>
    <path clip-path="url(#p0b1eb1b09b)" d="M 287.474221 202.44296 
L 311.598037 242.240699 
" style="fill:none;stroke:#292929;"/>
    <path clip-path="url(#p0b1eb1b09b)" d="M 153.955546 187.684509 
L 95.821763 220.227611 
" style="fill:none;stroke:#292929;"/>
    <path clip-path="url(#p0b1eb1b09b)" d="M 153.955546 187.684509 
L 125.149007 202.17879 
" style="fill:none;stroke:#292929;"/>
    <path clip-path="url(#p0b1eb1b09b)" d="M 153.955546 187.684509 
L 117.826599 185.248548 
" style="fill:none;stroke:#292929;"/>
    <path clip-path="url(#p0b1eb1b09b)" d="M 153.955546 187.684509 
L 123.073543 169.990104 
" style="fill:none;stroke:#292929;"/>
    <path clip-path="url(#p0b1eb1b09b)" d="M 95.821763 220.227611 
L 76.606274 248.717907 
" style="fill:none;stroke:#292929;"/>
    <path clip-path="url(#p0b1eb1b09b)" d="M 95.821763 220.227611 
L 64.139532 237.865164 
" style="fill:none;stroke:#292929;"/>
    <path clip-path="url(#p0b1eb1b09b)" d="M 95.821763 220.227611 
L 60.440455 220.896114 
" style="fill:none;stroke:#292929;"/>
    <path clip-path="url(#p0b1eb1b09b)" d="M 341.589619 132.72215 
L 358.884679 158.746337 
" style="fill:none;stroke:#292929;"/>
    <path clip-path="url(#p0b1eb1b09b)" d="M 341.589619 132.72215 
L 353.729454 88.701418 
" style="fill:none;stroke:#292929;"/>
    <path clip-path="url(#p0b1eb1b09b)" d="M 341.589619 132.72215 
L 390.775913 152.319922 
" style="fill:none;stroke:#292929;"/>
    <path clip-path="url(#p0b1eb1b09b)" d="M 341.589619 132.72215 
L 379.095692 90.252594 
" style="fill:none;stroke:#292929;"/>
    <path clip-path="url(#p0b1eb1b09b)" d="M 341.589619 132.72215 
L 392.379497 123.145619 
" style="fill:none;stroke:#292929;"/>
    <path clip-path="url(#p0b1eb1b09b)" d="M 341.589619 132.72215 
L 369.008121 149.078371 
" style="fill:none;stroke:#292929;"/>
    <path clip-path="url(#p0b1eb1b09b)" d="M 341.589619 132.72215 
L 369.0105 129.83946 
" style="fill:none;stroke:#292929;"/>
    <path clip-path="url(#p0b1eb1b09b)" d="M 341.589619 132.72215 
L 355.866571 111.171042 
" style="fill:none;stroke:#292929;"/>
    <path clip-path="url(#p0b1eb1b09b)" d="M 319.632263 193.579266 
L 335.223104 169.440322 
" style="fill:none;stroke:#292929;"/>
    <path clip-path="url(#p0b1eb1b09b)" d="M 205.351686 224.077718 
L 190.662108 270.993803 
" style="fill:none;stroke:#292929;"/>
    <path clip-path="url(#p0b1eb1b09b)" d="M 205.351686 224.077718 
L 191.478553 251.02539 
" style="fill:none;stroke:#292929;"/>
    <path clip-path="url(#p0b1eb1b09b)" d="M 205.351686 224.077718 
L 175.029951 236.746199 
" style="fill:none;stroke:#292929;"/>
    <path clip-path="url(#p0b1eb1b09b)" d="M 196.852324 138.26195 
L 174.175981 151.19937 
" style="fill:none;stroke:#292929;"/>
    <path clip-path="url(#p0b1eb1b09b)" d="M 196.852324 138.26195 
L 170.915715 111.57348 
" style="fill:none;stroke:#292929;"/>
    <path clip-path="url(#p0b1eb1b09b)" d="M 311.598037 242.240699 
L 328.555593 271.018736 
" style="fill:none;stroke:#292929;"/>
    <path clip-path="url(#p0b1eb1b09b)" d="M 247.726749 209.771985 
L 253.38784 243.027205 
" style="fill:none;stroke:#292929;"/>
    <path clip-path="url(#p0b1eb1b09b)" d="M 353.729454 88.701418 
L 364.650701 56.431556 
" style="fill:none;stroke:#292929;"/>
    <path clip-path="url(#p0b1eb1b09b)" d="M 190.662108 270.993803 
L 179.547874 303.883636 
" style="fill:none;stroke:#292929;"/>
    <path clip-path="url(#p0b1eb1b09b)" d="M 174.175981 151.19937 
L 174.651533 175.365755 
" style="fill:none;stroke:#292929;"/>
    <path clip-path="url(#p0b1eb1b09b)" d="M 390.775913 152.319922 
L 425.733729 165.216674 
" style="fill:none;stroke:#292929;"/>
    <path clip-path="url(#p0b1eb1b09b)" d="M 379.095692 90.252594 
L 406.500443 54.370503 
" style="fill:none;stroke:#292929;"/>
    <path clip-path="url(#p0b1eb1b09b)" d="M 392.379497 123.145619 
L 429.049545 117.259743 
" style="fill:none;stroke:#292929;"/>
    <path clip-path="url(#p0b1eb1b09b)" d="M 406.500443 54.370503 
L 423.028487 27.156364 
" style="fill:none;stroke:#292929;"/>
    <path clip-path="url(#p0b1eb1b09b)" d="M 237.687022 98.467993 
L 250.817374 66.887768 
" style="fill:none;stroke:#292929;"/>
    <path clip-path="url(#p0b1eb1b09b)" d="M 237.687022 98.467993 
L 219.722313 67.466322 
" style="fill:none;stroke:#292929;"/>
    <path clip-path="url(#p0b1eb1b09b)" d="M 237.687022 98.467993 
L 235.881939 61.49182 
" style="fill:none;stroke:#292929;"/>
   </g>
   <g id="PathCollection_1">
    <path clip-path="url(#p0b1eb1b09b)" d="M 241.874334 168.380922 
C 242.811968 168.380922 243.711326 168.008396 244.374334 167.345388 
C 245.037341 166.682381 245.409867 165.783023 245.409867 164.845388 
C 245.409867 163.907754 245.037341 163.008396 244.374334 162.345388 
C 243.711326 161.682381 242.811968 161.309854 241.874334 161.309854 
C 240.936699 161.309854 240.037341 161.682381 239.374334 162.345388 
C 238.711326 163.008396 238.3388 163.907754 238.3388 164.845388 
C 238.3388 165.783023 238.711326 166.682381 239.374334 167.345388 
C 240.037341 168.008396 240.936699 168.380922 241.874334 168.380922 
z
" style="fill:#1f77b4;stroke:#ffffff;"/>
    <path clip-path="url(#p0b1eb1b09b)" d="M 256.212589 188.241577 
C 257.150224 188.241577 258.049581 187.869051 258.712589 187.206044 
C 259.375597 186.543036 259.748123 185.643678 259.748123 184.706044 
C 259.748123 183.768409 259.375597 182.869051 258.712589 182.206044 
C 258.049581 181.543036 257.150224 181.17051 256.212589 181.17051 
C 255.274955 181.17051 254.375597 181.543036 253.712589 182.206044 
C 253.049581 182.869051 252.677055 183.768409 252.677055 184.706044 
C 252.677055 185.643678 253.049581 186.543036 253.712589 187.206044 
C 254.375597 187.869051 255.274955 188.241577 256.212589 188.241577 
z
" style="fill:#1f77b4;stroke:#ffffff;"/>
    <path clip-path="url(#p0b1eb1b09b)" d="M 287.474221 205.978494 
C 288.411856 205.978494 289.311213 205.605967 289.974221 204.94296 
C 290.637229 204.279952 291.009755 203.380594 291.009755 202.44296 
C 291.009755 201.505325 290.637229 200.605967 289.974221 199.94296 
C 289.311213 199.279952 288.411856 198.907426 287.474221 198.907426 
C 286.536586 198.907426 285.637229 199.279952 284.974221 199.94296 
C 284.311213 200.605967 283.938687 201.505325 283.938687 202.44296 
C 283.938687 203.380594 284.311213 204.279952 284.974221 204.94296 
C 285.637229 205.605967 286.536586 205.978494 287.474221 205.978494 
z
" style="fill:#1f77b4;stroke:#ffffff;"/>
    <path clip-path="url(#p0b1eb1b09b)" d="M 153.955546 191.220043 
C 154.89318 191.220043 155.792538 190.847517 156.455546 190.184509 
C 157.118553 189.521501 157.491079 188.622144 157.491079 187.684509 
C 157.491079 186.746874 157.118553 185.847517 156.455546 185.184509 
C 155.792538 184.521501 154.89318 184.148975 153.955546 184.148975 
C 153.017911 184.148975 152.118553 184.521501 151.455546 185.184509 
C 150.792538 185.847517 150.420012 186.746874 150.420012 187.684509 
C 150.420012 188.622144 150.792538 189.521501 151.455546 190.184509 
C 152.118553 190.847517 153.017911 191.220043 153.955546 191.220043 
z
" style="fill:#1f77b4;stroke:#ffffff;"/>
    <path clip-path="url(#p0b1eb1b09b)" d="M 95.821763 223.763145 
C 96.759398 223.763145 97.658756 223.390619 98.321763 222.727611 
C 98.984771 222.064603 99.357297 221.165245 99.357297 220.227611 
C 99.357297 219.289976 98.984771 218.390619 98.321763 217.727611 
C 97.658756 217.064603 96.759398 216.692077 95.821763 216.692077 
C 94.884129 216.692077 93.984771 217.064603 93.321763 217.727611 
C 92.658756 218.390619 92.286229 219.289976 92.286229 220.227611 
C 92.286229 221.165245 92.658756 222.064603 93.321763 222.727611 
C 93.984771 223.390619 94.884129 223.763145 95.821763 223.763145 
z
" style="fill:#1f77b4;stroke:#ffffff;"/>
    <path clip-path="url(#p0b1eb1b09b)" d="M 76.606274 252.253441 
C 77.543908 252.253441 78.443266 251.880915 79.106274 251.217907 
C 79.769281 250.554899 80.141808 249.655542 80.141808 248.717907 
C 80.141808 247.780273 79.769281 246.880915 79.106274 246.217907 
C 78.443266 245.554899 77.543908 245.182373 76.606274 245.182373 
C 75.668639 245.182373 74.769281 245.554899 74.106274 246.217907 
C 73.443266 246.880915 73.07074 247.780273 73.07074 248.717907 
C 73.07074 249.655542 73.443266 250.554899 74.106274 251.217907 
C 74.769281 251.880915 75.668639 252.253441 76.606274 252.253441 
z
" style="fill:#1f77b4;stroke:#ffffff;"/>
    <path clip-path="url(#p0b1eb1b09b)" d="M 341.589619 136.257684 
C 342.527254 136.257684 343.426612 135.885158 344.089619 135.22215 
C 344.752627 134.559143 345.125153 133.659785 345.125153 132.72215 
C 345.125153 131.784516 344.752627 130.885158 344.089619 130.22215 
C 343.426612 129.559143 342.527254 129.186616 341.589619 129.186616 
C 340.651985 129.186616 339.752627 129.559143 339.089619 130.22215 
C 338.426612 130.885158 338.054085 131.784516 338.054085 132.72215 
C 338.054085 133.659785 338.426612 134.559143 339.089619 135.22215 
C 339.752627 135.885158 340.651985 136.257684 341.589619 136.257684 
z
" style="fill:#1f77b4;stroke:#ffffff;"/>
    <path clip-path="url(#p0b1eb1b09b)" d="M 125.149007 205.714324 
C 126.086641 205.714324 126.985999 205.341798 127.649007 204.67879 
C 128.312014 204.015783 128.68454 203.116425 128.68454 202.17879 
C 128.68454 201.241156 128.312014 200.341798 127.649007 199.67879 
C 126.985999 199.015783 126.086641 198.643256 125.149007 198.643256 
C 124.211372 198.643256 123.312014 199.015783 122.649007 199.67879 
C 121.985999 200.341798 121.613473 201.241156 121.613473 202.17879 
C 121.613473 203.116425 121.985999 204.015783 122.649007 204.67879 
C 123.312014 205.341798 124.211372 205.714324 125.149007 205.714324 
z
" style="fill:#1f77b4;stroke:#ffffff;"/>
    <path clip-path="url(#p0b1eb1b09b)" d="M 319.632263 197.1148 
C 320.569898 197.1148 321.469255 196.742274 322.132263 196.079266 
C 322.795271 195.416258 323.167797 194.516901 323.167797 193.579266 
C 323.167797 192.641632 322.795271 191.742274 322.132263 191.079266 
C 321.469255 190.416258 320.569898 190.043732 319.632263 190.043732 
C 318.694629 190.043732 317.795271 190.416258 317.132263 191.079266 
C 316.469255 191.742274 316.096729 192.641632 316.096729 193.579266 
C 316.096729 194.516901 316.469255 195.416258 317.132263 196.079266 
C 317.795271 196.742274 318.694629 197.1148 319.632263 197.1148 
z
" style="fill:#1f77b4;stroke:#ffffff;"/>
    <path clip-path="url(#p0b1eb1b09b)" d="M 205.351686 227.613252 
C 206.289321 227.613252 207.188678 227.240726 207.851686 226.577718 
C 208.514694 225.91471 208.88722 225.015353 208.88722 224.077718 
C 208.88722 223.140084 208.514694 222.240726 207.851686 221.577718 
C 207.188678 220.91471 206.289321 220.542184 205.351686 220.542184 
C 204.414052 220.542184 203.514694 220.91471 202.851686 221.577718 
C 202.188678 222.240726 201.816152 223.140084 201.816152 224.077718 
C 201.816152 225.015353 202.188678 225.91471 202.851686 226.577718 
C 203.514694 227.240726 204.414052 227.613252 205.351686 227.613252 
z
" style="fill:#1f77b4;stroke:#ffffff;"/>
    <path clip-path="url(#p0b1eb1b09b)" d="M 216.204599 168.783773 
C 217.142233 168.783773 218.041591 168.411247 218.704599 167.748239 
C 219.367606 167.085231 219.740133 166.185874 219.740133 165.248239 
C 219.740133 164.310605 219.367606 163.411247 218.704599 162.748239 
C 218.041591 162.085231 217.142233 161.712705 216.204599 161.712705 
C 215.266964 161.712705 214.367606 162.085231 213.704599 162.748239 
C 213.041591 163.411247 212.669065 164.310605 212.669065 165.248239 
C 212.669065 166.185874 213.041591 167.085231 213.704599 167.748239 
C 214.367606 168.411247 215.266964 168.783773 216.204599 168.783773 
z
" style="fill:#1f77b4;stroke:#ffffff;"/>
    <path clip-path="url(#p0b1eb1b09b)" d="M 251.15363 149.04476 
C 252.091265 149.04476 252.990623 148.672234 253.65363 148.009226 
C 254.316638 147.346218 254.689164 146.44686 254.689164 145.509226 
C 254.689164 144.571591 254.316638 143.672234 253.65363 143.009226 
C 252.990623 142.346218 252.091265 141.973692 251.15363 141.973692 
C 250.215996 141.973692 249.316638 142.346218 248.65363 143.009226 
C 247.990623 143.672234 247.618097 144.571591 247.618097 145.509226 
C 247.618097 146.44686 247.990623 147.346218 248.65363 148.009226 
C 249.316638 148.672234 250.215996 149.04476 251.15363 149.04476 
z
" style="fill:#1f77b4;stroke:#ffffff;"/>
    <path clip-path="url(#p0b1eb1b09b)" d="M 196.852324 141.797484 
C 197.789959 141.797484 198.689317 141.424957 199.352324 140.76195 
C 200.015332 140.098942 200.387858 139.199584 200.387858 138.26195 
C 200.387858 137.324315 200.015332 136.424957 199.352324 135.76195 
C 198.689317 135.098942 197.789959 134.726416 196.852324 134.726416 
C 195.91469 134.726416 195.015332 135.098942 194.352324 135.76195 
C 193.689317 136.424957 193.31679 137.324315 193.31679 138.26195 
C 193.31679 139.199584 193.689317 140.098942 194.352324 140.76195 
C 195.015332 141.424957 195.91469 141.797484 196.852324 141.797484 
z
" style="fill:#1f77b4;stroke:#ffffff;"/>
    <path clip-path="url(#p0b1eb1b09b)" d="M 311.598037 245.776233 
C 312.535671 245.776233 313.435029 245.403706 314.098037 244.740699 
C 314.761045 244.077691 315.133571 243.178333 315.133571 242.240699 
C 315.133571 241.303064 314.761045 240.403706 314.098037 239.740699 
C 313.435029 239.077691 312.535671 238.705165 311.598037 238.705165 
C 310.660402 238.705165 309.761045 239.077691 309.098037 239.740699 
C 308.435029 240.403706 308.062503 241.303064 308.062503 242.240699 
C 308.062503 243.178333 308.435029 244.077691 309.098037 244.740699 
C 309.761045 245.403706 310.660402 245.776233 311.598037 245.776233 
z
" style="fill:#1f77b4;stroke:#ffffff;"/>
    <path clip-path="url(#p0b1eb1b09b)" d="M 247.726749 213.307519 
C 248.664384 213.307519 249.563741 212.934993 250.226749 212.271985 
C 250.889757 211.608977 251.262283 210.70962 251.262283 209.771985 
C 251.262283 208.834351 250.889757 207.934993 250.226749 207.271985 
C 249.563741 206.608977 248.664384 206.236451 247.726749 206.236451 
C 246.789115 206.236451 245.889757 206.608977 245.226749 207.271985 
C 244.563741 207.934993 244.191215 208.834351 244.191215 209.771985 
C 244.191215 210.70962 244.563741 211.608977 245.226749 212.271985 
C 245.889757 212.934993 246.789115 213.307519 247.726749 213.307519 
z
" style="fill:#1f77b4;stroke:#ffffff;"/>
    <path clip-path="url(#p0b1eb1b09b)" d="M 64.139532 241.400698 
C 65.077166 241.400698 65.976524 241.028172 66.639532 240.365164 
C 67.30254 239.702157 67.675066 238.802799 67.675066 237.865164 
C 67.675066 236.92753 67.30254 236.028172 66.639532 235.365164 
C 65.976524 234.702157 65.077166 234.32963 64.139532 234.32963 
C 63.201897 234.32963 62.30254 234.702157 61.639532 235.365164 
C 60.976524 236.028172 60.603998 236.92753 60.603998 237.865164 
C 60.603998 238.802799 60.976524 239.702157 61.639532 240.365164 
C 62.30254 241.028172 63.201897 241.400698 64.139532 241.400698 
z
" style="fill:#1f77b4;stroke:#ffffff;"/>
    <path clip-path="url(#p0b1eb1b09b)" d="M 328.555593 274.55427 
C 329.493227 274.55427 330.392585 274.181744 331.055593 273.518736 
C 331.7186 272.855728 332.091127 271.95637 332.091127 271.018736 
C 332.091127 270.081101 331.7186 269.181744 331.055593 268.518736 
C 330.392585 267.855728 329.493227 267.483202 328.555593 267.483202 
C 327.617958 267.483202 326.7186 267.855728 326.055593 268.518736 
C 325.392585 269.181744 325.020059 270.081101 325.020059 271.018736 
C 325.020059 271.95637 325.392585 272.855728 326.055593 273.518736 
C 326.7186 274.181744 327.617958 274.55427 328.555593 274.55427 
z
" style="fill:#1f77b4;stroke:#ffffff;"/>
    <path clip-path="url(#p0b1eb1b09b)" d="M 358.884679 162.281871 
C 359.822314 162.281871 360.721671 161.909345 361.384679 161.246337 
C 362.047687 160.583329 362.420213 159.683972 362.420213 158.746337 
C 362.420213 157.808702 362.047687 156.909345 361.384679 156.246337 
C 360.721671 155.583329 359.822314 155.210803 358.884679 155.210803 
C 357.947045 155.210803 357.047687 155.583329 356.384679 156.246337 
C 355.721671 156.909345 355.349145 157.808702 355.349145 158.746337 
C 355.349145 159.683972 355.721671 160.583329 356.384679 161.246337 
C 357.047687 161.909345 357.947045 162.281871 358.884679 162.281871 
z
" style="fill:#1f77b4;stroke:#ffffff;"/>
    <path clip-path="url(#p0b1eb1b09b)" d="M 117.826599 188.784082 
C 118.764234 188.784082 119.663592 188.411556 120.326599 187.748548 
C 120.989607 187.08554 121.362133 186.186183 121.362133 185.248548 
C 121.362133 184.310914 120.989607 183.411556 120.326599 182.748548 
C 119.663592 182.08554 118.764234 181.713014 117.826599 181.713014 
C 116.888965 181.713014 115.989607 182.08554 115.326599 182.748548 
C 114.663592 183.411556 114.291066 184.310914 114.291066 185.248548 
C 114.291066 186.186183 114.663592 187.08554 115.326599 187.748548 
C 115.989607 188.411556 116.888965 188.784082 117.826599 188.784082 
z
" style="fill:#1f77b4;stroke:#ffffff;"/>
    <path clip-path="url(#p0b1eb1b09b)" d="M 353.729454 92.236952 
C 354.667088 92.236952 355.566446 91.864426 356.229454 91.201418 
C 356.892461 90.538411 357.264987 89.639053 357.264987 88.701418 
C 357.264987 87.763784 356.892461 86.864426 356.229454 86.201418 
C 355.566446 85.538411 354.667088 85.165884 353.729454 85.165884 
C 352.791819 85.165884 351.892461 85.538411 351.229454 86.201418 
C 350.566446 86.864426 350.19392 87.763784 350.19392 88.701418 
C 350.19392 89.639053 350.566446 90.538411 351.229454 91.201418 
C 351.892461 91.864426 352.791819 92.236952 353.729454 92.236952 
z
" style="fill:#1f77b4;stroke:#ffffff;"/>
    <path clip-path="url(#p0b1eb1b09b)" d="M 190.662108 274.529337 
C 191.599743 274.529337 192.499101 274.156811 193.162108 273.493803 
C 193.825116 272.830796 194.197642 271.931438 194.197642 270.993803 
C 194.197642 270.056169 193.825116 269.156811 193.162108 268.493803 
C 192.499101 267.830796 191.599743 267.458269 190.662108 267.458269 
C 189.724474 267.458269 188.825116 267.830796 188.162108 268.493803 
C 187.499101 269.156811 187.126574 270.056169 187.126574 270.993803 
C 187.126574 271.931438 187.499101 272.830796 188.162108 273.493803 
C 188.825116 274.156811 189.724474 274.529337 190.662108 274.529337 
z
" style="fill:#1f77b4;stroke:#ffffff;"/>
    <path clip-path="url(#p0b1eb1b09b)" d="M 191.478553 254.560924 
C 192.416187 254.560924 193.315545 254.188398 193.978553 253.52539 
C 194.641561 252.862382 195.014087 251.963024 195.014087 251.02539 
C 195.014087 250.087755 194.641561 249.188398 193.978553 248.52539 
C 193.315545 247.862382 192.416187 247.489856 191.478553 247.489856 
C 190.540918 247.489856 189.641561 247.862382 188.978553 248.52539 
C 188.315545 249.188398 187.943019 250.087755 187.943019 251.02539 
C 187.943019 251.963024 188.315545 252.862382 188.978553 253.52539 
C 189.641561 254.188398 190.540918 254.560924 191.478553 254.560924 
z
" style="fill:#1f77b4;stroke:#ffffff;"/>
    <path clip-path="url(#p0b1eb1b09b)" d="M 174.175981 154.734904 
C 175.113616 154.734904 176.012973 154.362378 176.675981 153.69937 
C 177.338989 153.036363 177.711515 152.137005 177.711515 151.19937 
C 177.711515 150.261736 177.338989 149.362378 176.675981 148.69937 
C 176.012973 148.036363 175.113616 147.663837 174.175981 147.663837 
C 173.238347 147.663837 172.338989 148.036363 171.675981 148.69937 
C 171.012973 149.362378 170.640447 150.261736 170.640447 151.19937 
C 170.640447 152.137005 171.012973 153.036363 171.675981 153.69937 
C 172.338989 154.362378 173.238347 154.734904 174.175981 154.734904 
z
" style="fill:#1f77b4;stroke:#ffffff;"/>
    <path clip-path="url(#p0b1eb1b09b)" d="M 227.930673 190.069701 
C 228.868307 190.069701 229.767665 189.697175 230.430673 189.034168 
C 231.093681 188.37116 231.466207 187.471802 231.466207 186.534168 
C 231.466207 185.596533 231.093681 184.697175 230.430673 184.034168 
C 229.767665 183.37116 228.868307 182.998634 227.930673 182.998634 
C 226.993038 182.998634 226.093681 183.37116 225.430673 184.034168 
C 224.767665 184.697175 224.395139 185.596533 224.395139 186.534168 
C 224.395139 187.471802 224.767665 188.37116 225.430673 189.034168 
C 226.093681 189.697175 226.993038 190.069701 227.930673 190.069701 
z
" style="fill:#1f77b4;stroke:#ffffff;"/>
    <path clip-path="url(#p0b1eb1b09b)" d="M 364.650701 59.96709 
C 365.588335 59.96709 366.487693 59.594564 367.150701 58.931556 
C 367.813709 58.268549 368.186235 57.369191 368.186235 56.431556 
C 368.186235 55.493922 367.813709 54.594564 367.150701 53.931556 
C 366.487693 53.268549 365.588335 52.896022 364.650701 52.896022 
C 363.713066 52.896022 362.813709 53.268549 362.150701 53.931556 
C 361.487693 54.594564 361.115167 55.493922 361.115167 56.431556 
C 361.115167 57.369191 361.487693 58.268549 362.150701 58.931556 
C 362.813709 59.594564 363.713066 59.96709 364.650701 59.96709 
z
" style="fill:#1f77b4;stroke:#ffffff;"/>
    <path clip-path="url(#p0b1eb1b09b)" d="M 60.440455 224.431648 
C 61.378089 224.431648 62.277447 224.059122 62.940455 223.396114 
C 63.603462 222.733106 63.975988 221.833749 63.975988 220.896114 
C 63.975988 219.95848 63.603462 219.059122 62.940455 218.396114 
C 62.277447 217.733106 61.378089 217.36058 60.440455 217.36058 
C 59.50282 217.36058 58.603462 217.733106 57.940455 218.396114 
C 57.277447 219.059122 56.904921 219.95848 56.904921 220.896114 
C 56.904921 221.833749 57.277447 222.733106 57.940455 223.396114 
C 58.603462 224.059122 59.50282 224.431648 60.440455 224.431648 
z
" style="fill:#1f77b4;stroke:#ffffff;"/>
    <path clip-path="url(#p0b1eb1b09b)" d="M 123.073543 173.525638 
C 124.011178 173.525638 124.910536 173.153112 125.573543 172.490104 
C 126.236551 171.827096 126.609077 170.927739 126.609077 169.990104 
C 126.609077 169.05247 126.236551 168.153112 125.573543 167.490104 
C 124.910536 166.827096 124.011178 166.45457 123.073543 166.45457 
C 122.135909 166.45457 121.236551 166.827096 120.573543 167.490104 
C 119.910536 168.153112 119.53801 169.05247 119.53801 169.990104 
C 119.53801 170.927739 119.910536 171.827096 120.573543 172.490104 
C 121.236551 173.153112 122.135909 173.525638 123.073543 173.525638 
z
" style="fill:#1f77b4;stroke:#ffffff;"/>
    <path clip-path="url(#p0b1eb1b09b)" d="M 267.696365 164.061881 
C 268.634 164.061881 269.533357 163.689354 270.196365 163.026347 
C 270.859373 162.363339 271.231899 161.463981 271.231899 160.526347 
C 271.231899 159.588712 270.859373 158.689354 270.196365 158.026347 
C 269.533357 157.363339 268.634 156.990813 267.696365 156.990813 
C 266.75873 156.990813 265.859373 157.363339 265.196365 158.026347 
C 264.533357 158.689354 264.160831 159.588712 264.160831 160.526347 
C 264.160831 161.463981 264.533357 162.363339 265.196365 163.026347 
C 265.859373 163.689354 266.75873 164.061881 267.696365 164.061881 
z
" style="fill:#1f77b4;stroke:#ffffff;"/>
    <path clip-path="url(#p0b1eb1b09b)" d="M 390.775913 155.855455 
C 391.713548 155.855455 392.612905 155.482929 393.275913 154.819922 
C 393.938921 154.156914 394.311447 153.257556 394.311447 152.319922 
C 394.311447 151.382287 393.938921 150.482929 393.275913 149.819922 
C 392.612905 149.156914 391.713548 148.784388 390.775913 148.784388 
C 389.838278 148.784388 388.938921 149.156914 388.275913 149.819922 
C 387.612905 150.482929 387.240379 151.382287 387.240379 152.319922 
C 387.240379 153.257556 387.612905 154.156914 388.275913 154.819922 
C 388.938921 155.482929 389.838278 155.855455 390.775913 155.855455 
z
" style="fill:#1f77b4;stroke:#ffffff;"/>
    <path clip-path="url(#p0b1eb1b09b)" d="M 379.095692 93.788128 
C 380.033327 93.788128 380.932685 93.415602 381.595692 92.752594 
C 382.2587 92.089586 382.631226 91.190229 382.631226 90.252594 
C 382.631226 89.31496 382.2587 88.415602 381.595692 87.752594 
C 380.932685 87.089586 380.033327 86.71706 379.095692 86.71706 
C 378.158058 86.71706 377.2587 87.089586 376.595692 87.752594 
C 375.932685 88.415602 375.560159 89.31496 375.560159 90.252594 
C 375.560159 91.190229 375.932685 92.089586 376.595692 92.752594 
C 377.2587 93.415602 378.158058 93.788128 379.095692 93.788128 
z
" style="fill:#1f77b4;stroke:#ffffff;"/>
    <path clip-path="url(#p0b1eb1b09b)" d="M 392.379497 126.681152 
C 393.317131 126.681152 394.216489 126.308626 394.879497 125.645619 
C 395.542505 124.982611 395.915031 124.083253 395.915031 123.145619 
C 395.915031 122.207984 395.542505 121.308626 394.879497 120.645619 
C 394.216489 119.982611 393.317131 119.610085 392.379497 119.610085 
C 391.441862 119.610085 390.542505 119.982611 389.879497 120.645619 
C 389.216489 121.308626 388.843963 122.207984 388.843963 123.145619 
C 388.843963 124.083253 389.216489 124.982611 389.879497 125.645619 
C 390.542505 126.308626 391.441862 126.681152 392.379497 126.681152 
z
" style="fill:#1f77b4;stroke:#ffffff;"/>
    <path clip-path="url(#p0b1eb1b09b)" d="M 253.38784 246.562739 
C 254.325475 246.562739 255.224833 246.190213 255.88784 245.527205 
C 256.550848 244.864197 256.923374 243.96484 256.923374 243.027205 
C 256.923374 242.089571 256.550848 241.190213 255.88784 240.527205 
C 255.224833 239.864197 254.325475 239.491671 253.38784 239.491671 
C 252.450206 239.491671 251.550848 239.864197 250.88784 240.527205 
C 250.224833 241.190213 249.852306 242.089571 249.852306 243.027205 
C 249.852306 243.96484 250.224833 244.864197 250.88784 245.527205 
C 251.550848 246.190213 252.450206 246.562739 253.38784 246.562739 
z
" style="fill:#1f77b4;stroke:#ffffff;"/>
    <path clip-path="url(#p0b1eb1b09b)" d="M 369.008121 152.613905 
C 369.945755 152.613905 370.845113 152.241379 371.508121 151.578371 
C 372.171129 150.915363 372.543655 150.016005 372.543655 149.078371 
C 372.543655 148.140736 372.171129 147.241379 371.508121 146.578371 
C 370.845113 145.915363 369.945755 145.542837 369.008121 145.542837 
C 368.070486 145.542837 367.171129 145.915363 366.508121 146.578371 
C 365.845113 147.241379 365.472587 148.140736 365.472587 149.078371 
C 365.472587 150.016005 365.845113 150.915363 366.508121 151.578371 
C 367.171129 152.241379 368.070486 152.613905 369.008121 152.613905 
z
" style="fill:#1f77b4;stroke:#ffffff;"/>
    <path clip-path="url(#p0b1eb1b09b)" d="M 406.500443 57.906036 
C 407.438077 57.906036 408.337435 57.53351 409.000443 56.870503 
C 409.663451 56.207495 410.035977 55.308137 410.035977 54.370503 
C 410.035977 53.432868 409.663451 52.53351 409.000443 51.870503 
C 408.337435 51.207495 407.438077 50.834969 406.500443 50.834969 
C 405.562808 50.834969 404.663451 51.207495 404.000443 51.870503 
C 403.337435 52.53351 402.964909 53.432868 402.964909 54.370503 
C 402.964909 55.308137 403.337435 56.207495 404.000443 56.870503 
C 404.663451 57.53351 405.562808 57.906036 406.500443 57.906036 
z
" style="fill:#1f77b4;stroke:#ffffff;"/>
    <path clip-path="url(#p0b1eb1b09b)" d="M 425.733729 168.752208 
C 426.671364 168.752208 427.570721 168.379682 428.233729 167.716674 
C 428.896737 167.053666 429.269263 166.154309 429.269263 165.216674 
C 429.269263 164.27904 428.896737 163.379682 428.233729 162.716674 
C 427.570721 162.053666 426.671364 161.68114 425.733729 161.68114 
C 424.796095 161.68114 423.896737 162.053666 423.233729 162.716674 
C 422.570721 163.379682 422.198195 164.27904 422.198195 165.216674 
C 422.198195 166.154309 422.570721 167.053666 423.233729 167.716674 
C 423.896737 168.379682 424.796095 168.752208 425.733729 168.752208 
z
" style="fill:#1f77b4;stroke:#ffffff;"/>
    <path clip-path="url(#p0b1eb1b09b)" d="M 244.624671 136.650785 
C 245.562305 136.650785 246.461663 136.278259 247.124671 135.615251 
C 247.787678 134.952243 248.160205 134.052886 248.160205 133.115251 
C 248.160205 132.177616 247.787678 131.278259 247.124671 130.615251 
C 246.461663 129.952243 245.562305 129.579717 244.624671 129.579717 
C 243.687036 129.579717 242.787678 129.952243 242.124671 130.615251 
C 241.461663 131.278259 241.089137 132.177616 241.089137 133.115251 
C 241.089137 134.052886 241.461663 134.952243 242.124671 135.615251 
C 242.787678 136.278259 243.687036 136.650785 244.624671 136.650785 
z
" style="fill:#1f77b4;stroke:#ffffff;"/>
    <path clip-path="url(#p0b1eb1b09b)" d="M 224.793527 145.633421 
C 225.731161 145.633421 226.630519 145.260895 227.293527 144.597887 
C 227.956534 143.934879 228.329061 143.035521 228.329061 142.097887 
C 228.329061 141.160252 227.956534 140.260895 227.293527 139.597887 
C 226.630519 138.934879 225.731161 138.562353 224.793527 138.562353 
C 223.855892 138.562353 222.956534 138.934879 222.293527 139.597887 
C 221.630519 140.260895 221.257993 141.160252 221.257993 142.097887 
C 221.257993 143.035521 221.630519 143.934879 222.293527 144.597887 
C 222.956534 145.260895 223.855892 145.633421 224.793527 145.633421 
z
" style="fill:#1f77b4;stroke:#ffffff;"/>
    <path clip-path="url(#p0b1eb1b09b)" d="M 423.028487 30.691898 
C 423.966121 30.691898 424.865479 30.319371 425.528487 29.656364 
C 426.191494 28.993356 426.564021 28.093998 426.564021 27.156364 
C 426.564021 26.218729 426.191494 25.319371 425.528487 24.656364 
C 424.865479 23.993356 423.966121 23.62083 423.028487 23.62083 
C 422.090852 23.62083 421.191494 23.993356 420.528487 24.656364 
C 419.865479 25.319371 419.492953 26.218729 419.492953 27.156364 
C 419.492953 28.093998 419.865479 28.993356 420.528487 29.656364 
C 421.191494 30.319371 422.090852 30.691898 423.028487 30.691898 
z
" style="fill:#1f77b4;stroke:#ffffff;"/>
    <path clip-path="url(#p0b1eb1b09b)" d="M 170.915715 115.109014 
C 171.853349 115.109014 172.752707 114.736487 173.415715 114.07348 
C 174.078723 113.410472 174.451249 112.511114 174.451249 111.57348 
C 174.451249 110.635845 174.078723 109.736487 173.415715 109.07348 
C 172.752707 108.410472 171.853349 108.037946 170.915715 108.037946 
C 169.97808 108.037946 169.078723 108.410472 168.415715 109.07348 
C 167.752707 109.736487 167.380181 110.635845 167.380181 111.57348 
C 167.380181 112.511114 167.752707 113.410472 168.415715 114.07348 
C 169.078723 114.736487 169.97808 115.109014 170.915715 115.109014 
z
" style="fill:#1f77b4;stroke:#ffffff;"/>
    <path clip-path="url(#p0b1eb1b09b)" d="M 237.687022 102.003527 
C 238.624657 102.003527 239.524015 101.631001 240.187022 100.967993 
C 240.85003 100.304986 241.222556 99.405628 241.222556 98.467993 
C 241.222556 97.530359 240.85003 96.631001 240.187022 95.967993 
C 239.524015 95.304986 238.624657 94.93246 237.687022 94.93246 
C 236.749388 94.93246 235.85003 95.304986 235.187022 95.967993 
C 234.524015 96.631001 234.151489 97.530359 234.151489 98.467993 
C 234.151489 99.405628 234.524015 100.304986 235.187022 100.967993 
C 235.85003 101.631001 236.749388 102.003527 237.687022 102.003527 
z
" style="fill:#1f77b4;stroke:#ffffff;"/>
    <path clip-path="url(#p0b1eb1b09b)" d="M 250.817374 70.423302 
C 251.755009 70.423302 252.654366 70.050776 253.317374 69.387768 
C 253.980382 68.72476 254.352908 67.825402 254.352908 66.887768 
C 254.352908 65.950133 253.980382 65.050776 253.317374 64.387768 
C 252.654366 63.72476 251.755009 63.352234 250.817374 63.352234 
C 249.87974 63.352234 248.980382 63.72476 248.317374 64.387768 
C 247.654366 65.050776 247.28184 65.950133 247.28184 66.887768 
C 247.28184 67.825402 247.654366 68.72476 248.317374 69.387768 
C 248.980382 70.050776 249.87974 70.423302 250.817374 70.423302 
z
" style="fill:#1f77b4;stroke:#ffffff;"/>
    <path clip-path="url(#p0b1eb1b09b)" d="M 219.722313 71.001856 
C 220.659947 71.001856 221.559305 70.62933 222.222313 69.966322 
C 222.88532 69.303314 223.257846 68.403956 223.257846 67.466322 
C 223.257846 66.528687 222.88532 65.62933 222.222313 64.966322 
C 221.559305 64.303314 220.659947 63.930788 219.722313 63.930788 
C 218.784678 63.930788 217.88532 64.303314 217.222313 64.966322 
C 216.559305 65.62933 216.186779 66.528687 216.186779 67.466322 
C 216.186779 68.403956 216.559305 69.303314 217.222313 69.966322 
C 217.88532 70.62933 218.784678 71.001856 219.722313 71.001856 
z
" style="fill:#1f77b4;stroke:#ffffff;"/>
    <path clip-path="url(#p0b1eb1b09b)" d="M 369.0105 133.374994 
C 369.948135 133.374994 370.847493 133.002468 371.5105 132.33946 
C 372.173508 131.676453 372.546034 130.777095 372.546034 129.83946 
C 372.546034 128.901826 372.173508 128.002468 371.5105 127.33946 
C 370.847493 126.676453 369.948135 126.303926 369.0105 126.303926 
C 368.072866 126.303926 367.173508 126.676453 366.5105 127.33946 
C 365.847493 128.002468 365.474966 128.901826 365.474966 129.83946 
C 365.474966 130.777095 365.847493 131.676453 366.5105 132.33946 
C 367.173508 133.002468 368.072866 133.374994 369.0105 133.374994 
z
" style="fill:#1f77b4;stroke:#ffffff;"/>
    <path clip-path="url(#p0b1eb1b09b)" d="M 335.223104 172.975856 
C 336.160739 172.975856 337.060096 172.60333 337.723104 171.940322 
C 338.386112 171.277315 338.758638 170.377957 338.758638 169.440322 
C 338.758638 168.502688 338.386112 167.60333 337.723104 166.940322 
C 337.060096 166.277315 336.160739 165.904788 335.223104 165.904788 
C 334.28547 165.904788 333.386112 166.277315 332.723104 166.940322 
C 332.060096 167.60333 331.68757 168.502688 331.68757 169.440322 
C 331.68757 170.377957 332.060096 171.277315 332.723104 171.940322 
C 333.386112 172.60333 334.28547 172.975856 335.223104 172.975856 
z
" style="fill:#1f77b4;stroke:#ffffff;"/>
    <path clip-path="url(#p0b1eb1b09b)" d="M 355.866571 114.706576 
C 356.804206 114.706576 357.703563 114.334049 358.366571 113.671042 
C 359.029579 113.008034 359.402105 112.108676 359.402105 111.171042 
C 359.402105 110.233407 359.029579 109.334049 358.366571 108.671042 
C 357.703563 108.008034 356.804206 107.635508 355.866571 107.635508 
C 354.928936 107.635508 354.029579 108.008034 353.366571 108.671042 
C 352.703563 109.334049 352.331037 110.233407 352.331037 111.171042 
C 352.331037 112.108676 352.703563 113.008034 353.366571 113.671042 
C 354.029579 114.334049 354.928936 114.706576 355.866571 114.706576 
z
" style="fill:#1f77b4;stroke:#ffffff;"/>
    <path clip-path="url(#p0b1eb1b09b)" d="M 179.547874 307.41917 
C 180.485509 307.41917 181.384866 307.046644 182.047874 306.383636 
C 182.710882 305.720629 183.083408 304.821271 183.083408 303.883636 
C 183.083408 302.946002 182.710882 302.046644 182.047874 301.383636 
C 181.384866 300.720629 180.485509 300.348102 179.547874 300.348102 
C 178.610239 300.348102 177.710882 300.720629 177.047874 301.383636 
C 176.384866 302.046644 176.01234 302.946002 176.01234 303.883636 
C 176.01234 304.821271 176.384866 305.720629 177.047874 306.383636 
C 177.710882 307.046644 178.610239 307.41917 179.547874 307.41917 
z
" style="fill:#1f77b4;stroke:#ffffff;"/>
    <path clip-path="url(#p0b1eb1b09b)" d="M 174.651533 178.901289 
C 175.589167 178.901289 176.488525 178.528763 177.151533 177.865755 
C 177.81454 177.202747 178.187067 176.30339 178.187067 175.365755 
C 178.187067 174.428121 177.81454 173.528763 177.151533 172.865755 
C 176.488525 172.202747 175.589167 171.830221 174.651533 171.830221 
C 173.713898 171.830221 172.81454 172.202747 172.151533 172.865755 
C 171.488525 173.528763 171.115999 174.428121 171.115999 175.365755 
C 171.115999 176.30339 171.488525 177.202747 172.151533 177.865755 
C 172.81454 178.528763 173.713898 178.901289 174.651533 178.901289 
z
" style="fill:#1f77b4;stroke:#ffffff;"/>
    <path clip-path="url(#p0b1eb1b09b)" d="M 175.029951 240.281733 
C 175.967585 240.281733 176.866943 239.909207 177.529951 239.246199 
C 178.192958 238.583191 178.565484 237.683834 178.565484 236.746199 
C 178.565484 235.808564 178.192958 234.909207 177.529951 234.246199 
C 176.866943 233.583191 175.967585 233.210665 175.029951 233.210665 
C 174.092316 233.210665 173.192958 233.583191 172.529951 234.246199 
C 171.866943 234.909207 171.494417 235.808564 171.494417 236.746199 
C 171.494417 237.683834 171.866943 238.583191 172.529951 239.246199 
C 173.192958 239.909207 174.092316 240.281733 175.029951 240.281733 
z
" style="fill:#1f77b4;stroke:#ffffff;"/>
    <path clip-path="url(#p0b1eb1b09b)" d="M 235.881939 65.027353 
C 236.819574 65.027353 237.718931 64.654827 238.381939 63.99182 
C 239.044947 63.328812 239.417473 62.429454 239.417473 61.49182 
C 239.417473 60.554185 239.044947 59.654827 238.381939 58.99182 
C 237.718931 58.328812 236.819574 57.956286 235.881939 57.956286 
C 234.944305 57.956286 234.044947 58.328812 233.381939 58.99182 
C 232.718931 59.654827 232.346405 60.554185 232.346405 61.49182 
C 232.346405 62.429454 232.718931 63.328812 233.381939 63.99182 
C 234.044947 64.654827 234.944305 65.027353 235.881939 65.027353 
z
" style="fill:#1f77b4;stroke:#ffffff;"/>
    <path clip-path="url(#p0b1eb1b09b)" d="M 429.049545 120.795277 
C 429.98718 120.795277 430.886538 120.422751 431.549545 119.759743 
C 432.212553 119.096735 432.585079 118.197378 432.585079 117.259743 
C 432.585079 116.322109 432.212553 115.422751 431.549545 114.759743 
C 430.886538 114.096735 429.98718 113.724209 429.049545 113.724209 
C 428.111911 113.724209 427.212553 114.096735 426.549545 114.759743 
C 425.886538 115.422751 425.514012 116.322109 425.514012 117.259743 
C 425.514012 118.197378 425.886538 119.096735 426.549545 119.759743 
C 427.212553 120.422751 428.111911 120.795277 429.049545 120.795277 
z
" style="fill:#1f77b4;stroke:#ffffff;"/>
   </g>
  </g>
 </g>
 <defs>
  <clipPath id="p0b1eb1b09b">
   <rect height="304.4" width="405.47" x="42.01" y="13.32"/>
  </clipPath>
 </defs>
</svg>
