<?xml version="1.0" encoding="utf-8" standalone="no"?>
<!DOCTYPE svg PUBLIC "-//W3C//DTD SVG 1.1//EN"
  "http://www.w3.org/Graphics/SVG/1.1/DTD/svg11.dtd">
<!-- Created with matplotlib (http://matplotlib.org/) -->
<svg height="345.6pt" version="1.1" viewBox="0 0 460.8 345.6" width="460.8pt" xmlns="http://www.w3.org/2000/svg" xmlns:xlink="http://www.w3.org/1999/xlink">
 <defs>
  <style type="text/css">
*{stroke-linecap:butt;stroke-linejoin:round;}
  </style>
 </defs>
 <g id="figure_1">
  <g id="patch_1">
   <path d="M 0 345.6 
L 460.8 345.6 
L 460.8 0 
L 0 0 
z
" style="fill:#ffffff;"/>
  </g>
  <g id="axes_1">
   <g id="LineCollection_1">
    <path clip-path="url(#pbda0ba5b5c)" d="M 193.134375 122.9413 
L 235.135697 117.952846 
" style="fill:none;stroke:#292929;"/>
    <path clip-path="url(#pbda0ba5b5c)" d="M 193.134375 122.9413 
L 218.20779 156.418944 
" style="fill:none;stroke:#292929;"/>
    <path clip-path="url(#pbda0ba5b5c)" d="M 193.134375 122.9413 
L 163.140715 116.579453 
" style="fill:none;stroke:#292929;"/>
    <path clip-path="url(#pbda0ba5b5c)" d="M 193.134375 122.9413 
L 172.193139 190.511252 
" style="fill:none;stroke:#292929;"/>
    <path clip-path="url(#pbda0ba5b5c)" d="M 193.134375 122.9413 
L 225.28006 129.372627 
" style="fill:none;stroke:#292929;"/>
    <path clip-path="url(#pbda0ba5b5c)" d="M 193.134375 122.9413 
L 200.654828 81.528729 
" style="fill:none;stroke:#292929;"/>
    <path clip-path="url(#pbda0ba5b5c)" d="M 193.134375 122.9413 
L 304.954208 103.647791 
" style="fill:none;stroke:#292929;"/>
    <path clip-path="url(#pbda0ba5b5c)" d="M 193.134375 122.9413 
L 228.238741 107.492621 
" style="fill:none;stroke:#292929;"/>
    <path clip-path="url(#pbda0ba5b5c)" d="M 193.134375 122.9413 
L 166.00528 134.72797 
" style="fill:none;stroke:#292929;"/>
    <path clip-path="url(#pbda0ba5b5c)" d="M 193.134375 122.9413 
L 144.49931 129.131073 
" style="fill:none;stroke:#292929;"/>
    <path clip-path="url(#pbda0ba5b5c)" d="M 193.134375 122.9413 
L 142.168004 117.533104 
" style="fill:none;stroke:#292929;"/>
    <path clip-path="url(#pbda0ba5b5c)" d="M 193.134375 122.9413 
L 164.660801 99.572169 
" style="fill:none;stroke:#292929;"/>
    <path clip-path="url(#pbda0ba5b5c)" d="M 193.134375 122.9413 
L 184.580185 97.170275 
" style="fill:none;stroke:#292929;"/>
    <path clip-path="url(#pbda0ba5b5c)" d="M 193.134375 122.9413 
L 192.564176 107.261721 
" style="fill:none;stroke:#292929;"/>
    <path clip-path="url(#pbda0ba5b5c)" d="M 193.134375 122.9413 
L 150.09418 105.926604 
" style="fill:none;stroke:#292929;"/>
    <path clip-path="url(#pbda0ba5b5c)" d="M 193.134375 122.9413 
L 117.387284 111.407583 
" style="fill:none;stroke:#292929;"/>
    <path clip-path="url(#pbda0ba5b5c)" d="M 193.134375 122.9413 
L 211.889729 99.992542 
" style="fill:none;stroke:#292929;"/>
    <path clip-path="url(#pbda0ba5b5c)" d="M 218.20779 156.418944 
L 259.945841 186.519304 
" style="fill:none;stroke:#292929;"/>
    <path clip-path="url(#pbda0ba5b5c)" d="M 218.20779 156.418944 
L 180.56731 160.178913 
" style="fill:none;stroke:#292929;"/>
    <path clip-path="url(#pbda0ba5b5c)" d="M 172.193139 190.511252 
L 136.52498 201.661503 
" style="fill:none;stroke:#292929;"/>
    <path clip-path="url(#pbda0ba5b5c)" d="M 172.193139 190.511252 
L 199.242321 241.90241 
" style="fill:none;stroke:#292929;"/>
    <path clip-path="url(#pbda0ba5b5c)" d="M 172.193139 190.511252 
L 183.586796 210.060943 
" style="fill:none;stroke:#292929;"/>
    <path clip-path="url(#pbda0ba5b5c)" d="M 172.193139 190.511252 
L 117.216312 211.412778 
" style="fill:none;stroke:#292929;"/>
    <path clip-path="url(#pbda0ba5b5c)" d="M 172.193139 190.511252 
L 158.768037 211.052596 
" style="fill:none;stroke:#292929;"/>
    <path clip-path="url(#pbda0ba5b5c)" d="M 259.945841 186.519304 
L 191.57719 185.455262 
" style="fill:none;stroke:#292929;"/>
    <path clip-path="url(#pbda0ba5b5c)" d="M 259.945841 186.519304 
L 270.905692 207.341288 
" style="fill:none;stroke:#292929;"/>
    <path clip-path="url(#pbda0ba5b5c)" d="M 259.945841 186.519304 
L 292.445434 205.281913 
" style="fill:none;stroke:#292929;"/>
    <path clip-path="url(#pbda0ba5b5c)" d="M 259.945841 186.519304 
L 305.343566 197.808253 
" style="fill:none;stroke:#292929;"/>
    <path clip-path="url(#pbda0ba5b5c)" d="M 259.945841 186.519304 
L 238.636453 193.398867 
" style="fill:none;stroke:#292929;"/>
    <path clip-path="url(#pbda0ba5b5c)" d="M 259.945841 186.519304 
L 295.734579 178.926818 
" style="fill:none;stroke:#292929;"/>
    <path clip-path="url(#pbda0ba5b5c)" d="M 259.945841 186.519304 
L 308.364705 188.053792 
" style="fill:none;stroke:#292929;"/>
    <path clip-path="url(#pbda0ba5b5c)" d="M 200.654828 81.528729 
L 207.788829 49.822573 
" style="fill:none;stroke:#292929;"/>
    <path clip-path="url(#pbda0ba5b5c)" d="M 191.57719 185.455262 
L 138.107812 187.33131 
" style="fill:none;stroke:#292929;"/>
    <path clip-path="url(#pbda0ba5b5c)" d="M 304.954208 103.647791 
L 380.20479 92.1145 
" style="fill:none;stroke:#292929;"/>
    <path clip-path="url(#pbda0ba5b5c)" d="M 304.954208 103.647791 
L 339.651348 79.089876 
" style="fill:none;stroke:#292929;"/>
    <path clip-path="url(#pbda0ba5b5c)" d="M 304.954208 103.647791 
L 365.763376 109.613388 
" style="fill:none;stroke:#292929;"/>
    <path clip-path="url(#pbda0ba5b5c)" d="M 380.20479 92.1145 
L 419.559695 78.297673 
" style="fill:none;stroke:#292929;"/>
    <path clip-path="url(#pbda0ba5b5c)" d="M 380.20479 92.1145 
L 429.335909 89.768164 
" style="fill:none;stroke:#292929;"/>
    <path clip-path="url(#pbda0ba5b5c)" d="M 199.242321 241.90241 
L 226.893467 281.366537 
" style="fill:none;stroke:#292929;"/>
    <path clip-path="url(#pbda0ba5b5c)" d="M 199.242321 241.90241 
L 214.897192 260.29697 
" style="fill:none;stroke:#292929;"/>
    <path clip-path="url(#pbda0ba5b5c)" d="M 199.242321 241.90241 
L 180.233366 261.675006 
" style="fill:none;stroke:#292929;"/>
    <path clip-path="url(#pbda0ba5b5c)" d="M 226.893467 281.366537 
L 259.285613 297.484451 
" style="fill:none;stroke:#292929;"/>
    <path clip-path="url(#pbda0ba5b5c)" d="M 226.893467 281.366537 
L 238.432374 303.883636 
" style="fill:none;stroke:#292929;"/>
    <path clip-path="url(#pbda0ba5b5c)" d="M 226.893467 281.366537 
L 213.317305 302.92475 
" style="fill:none;stroke:#292929;"/>
    <path clip-path="url(#pbda0ba5b5c)" d="M 117.216312 211.412778 
L 78.595061 225.877043 
" style="fill:none;stroke:#292929;"/>
    <path clip-path="url(#pbda0ba5b5c)" d="M 207.788829 49.822573 
L 212.91826 27.156364 
" style="fill:none;stroke:#292929;"/>
    <path clip-path="url(#pbda0ba5b5c)" d="M 339.651348 79.089876 
L 365.256028 60.092858 
" style="fill:none;stroke:#292929;"/>
    <path clip-path="url(#pbda0ba5b5c)" d="M 117.387284 111.407583 
L 66.454091 103.381861 
" style="fill:none;stroke:#292929;"/>
    <path clip-path="url(#pbda0ba5b5c)" d="M 365.763376 109.613388 
L 412.662825 113.967445 
" style="fill:none;stroke:#292929;"/>
   </g>
   <g id="PathCollection_1">
    <path clip-path="url(#pbda0ba5b5c)" d="M 193.134375 126.476834 
C 194.07201 126.476834 194.971368 126.104308 195.634375 125.4413 
C 196.297383 124.778293 196.669909 123.878935 196.669909 122.9413 
C 196.669909 122.003666 196.297383 121.104308 195.634375 120.4413 
C 194.971368 119.778293 194.07201 119.405766 193.134375 119.405766 
C 192.196741 119.405766 191.297383 119.778293 190.634375 120.4413 
C 189.971368 121.104308 189.598841 122.003666 189.598841 122.9413 
C 189.598841 123.878935 189.971368 124.778293 190.634375 125.4413 
C 191.297383 126.104308 192.196741 126.476834 193.134375 126.476834 
z
" style="fill:#ff0000;stroke:#ffffff;"/>
    <path clip-path="url(#pbda0ba5b5c)" d="M 235.135697 121.488379 
C 236.073331 121.488379 236.972689 121.115853 237.635697 120.452846 
C 238.298704 119.789838 238.67123 118.89048 238.67123 117.952846 
C 238.67123 117.015211 238.298704 116.115853 237.635697 115.452846 
C 236.972689 114.789838 236.073331 114.417312 235.135697 114.417312 
C 234.198062 114.417312 233.298704 114.789838 232.635697 115.452846 
C 231.972689 116.115853 231.600163 117.015211 231.600163 117.952846 
C 231.600163 118.89048 231.972689 119.789838 232.635697 120.452846 
C 233.298704 121.115853 234.198062 121.488379 235.135697 121.488379 
z
" style="stroke:#ffffff;"/>
    <path clip-path="url(#pbda0ba5b5c)" d="M 218.20779 159.954478 
C 219.145425 159.954478 220.044782 159.581952 220.70779 158.918944 
C 221.370798 158.255937 221.743324 157.356579 221.743324 156.418944 
C 221.743324 155.48131 221.370798 154.581952 220.70779 153.918944 
C 220.044782 153.255937 219.145425 152.88341 218.20779 152.88341 
C 217.270156 152.88341 216.370798 153.255937 215.70779 153.918944 
C 215.044782 154.581952 214.672256 155.48131 214.672256 156.418944 
C 214.672256 157.356579 215.044782 158.255937 215.70779 158.918944 
C 216.370798 159.581952 217.270156 159.954478 218.20779 159.954478 
z
" style="fill:#ff0000;stroke:#ffffff;"/>
    <path clip-path="url(#pbda0ba5b5c)" d="M 163.140715 120.114987 
C 164.078349 120.114987 164.977707 119.742461 165.640715 119.079453 
C 166.303722 118.416445 166.676249 117.517088 166.676249 116.579453 
C 166.676249 115.641818 166.303722 114.742461 165.640715 114.079453 
C 164.977707 113.416445 164.078349 113.043919 163.140715 113.043919 
C 162.20308 113.043919 161.303722 113.416445 160.640715 114.079453 
C 159.977707 114.742461 159.605181 115.641818 159.605181 116.579453 
C 159.605181 117.517088 159.977707 118.416445 160.640715 119.079453 
C 161.303722 119.742461 162.20308 120.114987 163.140715 120.114987 
z
" style="stroke:#ffffff;"/>
    <path clip-path="url(#pbda0ba5b5c)" d="M 172.193139 194.046786 
C 173.130774 194.046786 174.030132 193.67426 174.693139 193.011252 
C 175.356147 192.348244 175.728673 191.448887 175.728673 190.511252 
C 175.728673 189.573618 175.356147 188.67426 174.693139 188.011252 
C 174.030132 187.348244 173.130774 186.975718 172.193139 186.975718 
C 171.255505 186.975718 170.356147 187.348244 169.693139 188.011252 
C 169.030132 188.67426 168.657605 189.573618 168.657605 190.511252 
C 168.657605 191.448887 169.030132 192.348244 169.693139 193.011252 
C 170.356147 193.67426 171.255505 194.046786 172.193139 194.046786 
z
" style="fill:#ff0000;stroke:#ffffff;"/>
    <path clip-path="url(#pbda0ba5b5c)" d="M 225.28006 132.908161 
C 226.217694 132.908161 227.117052 132.535635 227.78006 131.872627 
C 228.443068 131.209619 228.815594 130.310261 228.815594 129.372627 
C 228.815594 128.434992 228.443068 127.535635 227.78006 126.872627 
C 227.117052 126.209619 226.217694 125.837093 225.28006 125.837093 
C 224.342425 125.837093 223.443068 126.209619 222.78006 126.872627 
C 222.117052 127.535635 221.744526 128.434992 221.744526 129.372627 
C 221.744526 130.310261 222.117052 131.209619 222.78006 131.872627 
C 223.443068 132.535635 224.342425 132.908161 225.28006 132.908161 
z
" style="stroke:#ffffff;"/>
    <path clip-path="url(#pbda0ba5b5c)" d="M 259.945841 190.054837 
C 260.883476 190.054837 261.782833 189.682311 262.445841 189.019304 
C 263.108849 188.356296 263.481375 187.456938 263.481375 186.519304 
C 263.481375 185.581669 263.108849 184.682311 262.445841 184.019304 
C 261.782833 183.356296 260.883476 182.98377 259.945841 182.98377 
C 259.008207 182.98377 258.108849 183.356296 257.445841 184.019304 
C 256.782833 184.682311 256.410307 185.581669 256.410307 186.519304 
C 256.410307 187.456938 256.782833 188.356296 257.445841 189.019304 
C 258.108849 189.682311 259.008207 190.054837 259.945841 190.054837 
z
" style="fill:#ff0000;stroke:#ffffff;"/>
    <path clip-path="url(#pbda0ba5b5c)" d="M 200.654828 85.064262 
C 201.592463 85.064262 202.49182 84.691736 203.154828 84.028729 
C 203.817836 83.365721 204.190362 82.466363 204.190362 81.528729 
C 204.190362 80.591094 203.817836 79.691736 203.154828 79.028729 
C 202.49182 78.365721 201.592463 77.993195 200.654828 77.993195 
C 199.717194 77.993195 198.817836 78.365721 198.154828 79.028729 
C 197.49182 79.691736 197.119294 80.591094 197.119294 81.528729 
C 197.119294 82.466363 197.49182 83.365721 198.154828 84.028729 
C 198.817836 84.691736 199.717194 85.064262 200.654828 85.064262 
z
" style="stroke:#ffffff;"/>
    <path clip-path="url(#pbda0ba5b5c)" d="M 191.57719 188.990796 
C 192.514825 188.990796 193.414182 188.61827 194.07719 187.955262 
C 194.740198 187.292255 195.112724 186.392897 195.112724 185.455262 
C 195.112724 184.517628 194.740198 183.61827 194.07719 182.955262 
C 193.414182 182.292255 192.514825 181.919728 191.57719 181.919728 
C 190.639556 181.919728 189.740198 182.292255 189.07719 182.955262 
C 188.414182 183.61827 188.041656 184.517628 188.041656 185.455262 
C 188.041656 186.392897 188.414182 187.292255 189.07719 187.955262 
C 189.740198 188.61827 190.639556 188.990796 191.57719 188.990796 
z
" style="fill:#ff0000;stroke:#ffffff;"/>
    <path clip-path="url(#pbda0ba5b5c)" d="M 304.954208 107.183325 
C 305.891843 107.183325 306.7912 106.810799 307.454208 106.147791 
C 308.117216 105.484784 308.489742 104.585426 308.489742 103.647791 
C 308.489742 102.710157 308.117216 101.810799 307.454208 101.147791 
C 306.7912 100.484784 305.891843 100.112257 304.954208 100.112257 
C 304.016574 100.112257 303.117216 100.484784 302.454208 101.147791 
C 301.7912 101.810799 301.418674 102.710157 301.418674 103.647791 
C 301.418674 104.585426 301.7912 105.484784 302.454208 106.147791 
C 303.117216 106.810799 304.016574 107.183325 304.954208 107.183325 
z
" style="fill:#ff0000;stroke:#ffffff;"/>
    <path clip-path="url(#pbda0ba5b5c)" d="M 136.52498 205.197037 
C 137.462615 205.197037 138.361973 204.824511 139.02498 204.161503 
C 139.687988 203.498495 140.060514 202.599138 140.060514 201.661503 
C 140.060514 200.723869 139.687988 199.824511 139.02498 199.161503 
C 138.361973 198.498495 137.462615 198.125969 136.52498 198.125969 
C 135.587346 198.125969 134.687988 198.498495 134.02498 199.161503 
C 133.361973 199.824511 132.989446 200.723869 132.989446 201.661503 
C 132.989446 202.599138 133.361973 203.498495 134.02498 204.161503 
C 134.687988 204.824511 135.587346 205.197037 136.52498 205.197037 
z
" style="stroke:#ffffff;"/>
    <path clip-path="url(#pbda0ba5b5c)" d="M 228.238741 111.028155 
C 229.176376 111.028155 230.075734 110.655629 230.738741 109.992621 
C 231.401749 109.329613 231.774275 108.430256 231.774275 107.492621 
C 231.774275 106.554987 231.401749 105.655629 230.738741 104.992621 
C 230.075734 104.329613 229.176376 103.957087 228.238741 103.957087 
C 227.301107 103.957087 226.401749 104.329613 225.738741 104.992621 
C 225.075734 105.655629 224.703208 106.554987 224.703208 107.492621 
C 224.703208 108.430256 225.075734 109.329613 225.738741 109.992621 
C 226.401749 110.655629 227.301107 111.028155 228.238741 111.028155 
z
" style="stroke:#ffffff;"/>
    <path clip-path="url(#pbda0ba5b5c)" d="M 380.20479 95.650034 
C 381.142425 95.650034 382.041783 95.277508 382.70479 94.6145 
C 383.367798 93.951492 383.740324 93.052135 383.740324 92.1145 
C 383.740324 91.176866 383.367798 90.277508 382.70479 89.6145 
C 382.041783 88.951492 381.142425 88.578966 380.20479 88.578966 
C 379.267156 88.578966 378.367798 88.951492 377.70479 89.6145 
C 377.041783 90.277508 376.669256 91.176866 376.669256 92.1145 
C 376.669256 93.052135 377.041783 93.951492 377.70479 94.6145 
C 378.367798 95.277508 379.267156 95.650034 380.20479 95.650034 
z
" style="fill:#ff0000;stroke:#ffffff;"/>
    <path clip-path="url(#pbda0ba5b5c)" d="M 166.00528 138.263504 
C 166.942914 138.263504 167.842272 137.890978 168.50528 137.22797 
C 169.168288 136.564962 169.540814 135.665604 169.540814 134.72797 
C 169.540814 133.790335 169.168288 132.890978 168.50528 132.22797 
C 167.842272 131.564962 166.942914 131.192436 166.00528 131.192436 
C 165.067645 131.192436 164.168288 131.564962 163.50528 132.22797 
C 162.842272 132.890978 162.469746 133.790335 162.469746 134.72797 
C 162.469746 135.665604 162.842272 136.564962 163.50528 137.22797 
C 164.168288 137.890978 165.067645 138.263504 166.00528 138.263504 
z
" style="stroke:#ffffff;"/>
    <path clip-path="url(#pbda0ba5b5c)" d="M 144.49931 132.666607 
C 145.436945 132.666607 146.336302 132.29408 146.99931 131.631073 
C 147.662318 130.968065 148.034844 130.068707 148.034844 129.131073 
C 148.034844 128.193438 147.662318 127.29408 146.99931 126.631073 
C 146.336302 125.968065 145.436945 125.595539 144.49931 125.595539 
C 143.561676 125.595539 142.662318 125.968065 141.99931 126.631073 
C 141.336302 127.29408 140.963776 128.193438 140.963776 129.131073 
C 140.963776 130.068707 141.336302 130.968065 141.99931 131.631073 
C 142.662318 132.29408 143.561676 132.666607 144.49931 132.666607 
z
" style="stroke:#ffffff;"/>
    <path clip-path="url(#pbda0ba5b5c)" d="M 199.242321 245.437944 
C 200.179956 245.437944 201.079313 245.065418 201.742321 244.40241 
C 202.405329 243.739402 202.777855 242.840045 202.777855 241.90241 
C 202.777855 240.964775 202.405329 240.065418 201.742321 239.40241 
C 201.079313 238.739402 200.179956 238.366876 199.242321 238.366876 
C 198.304687 238.366876 197.405329 238.739402 196.742321 239.40241 
C 196.079313 240.065418 195.706787 240.964775 195.706787 241.90241 
C 195.706787 242.840045 196.079313 243.739402 196.742321 244.40241 
C 197.405329 245.065418 198.304687 245.437944 199.242321 245.437944 
z
" style="fill:#ff0000;stroke:#ffffff;"/>
    <path clip-path="url(#pbda0ba5b5c)" d="M 270.905692 210.876822 
C 271.843327 210.876822 272.742685 210.504295 273.405692 209.841288 
C 274.0687 209.17828 274.441226 208.278922 274.441226 207.341288 
C 274.441226 206.403653 274.0687 205.504295 273.405692 204.841288 
C 272.742685 204.17828 271.843327 203.805754 270.905692 203.805754 
C 269.968058 203.805754 269.0687 204.17828 268.405692 204.841288 
C 267.742685 205.504295 267.370159 206.403653 267.370159 207.341288 
C 267.370159 208.278922 267.742685 209.17828 268.405692 209.841288 
C 269.0687 210.504295 269.968058 210.876822 270.905692 210.876822 
z
" style="stroke:#ffffff;"/>
    <path clip-path="url(#pbda0ba5b5c)" d="M 226.893467 284.902071 
C 227.831102 284.902071 228.73046 284.529545 229.393467 283.866537 
C 230.056475 283.203529 230.429001 282.304171 230.429001 281.366537 
C 230.429001 280.428902 230.056475 279.529545 229.393467 278.866537 
C 228.73046 278.203529 227.831102 277.831003 226.893467 277.831003 
C 225.955833 277.831003 225.056475 278.203529 224.393467 278.866537 
C 223.73046 279.529545 223.357934 280.428902 223.357934 281.366537 
C 223.357934 282.304171 223.73046 283.203529 224.393467 283.866537 
C 225.056475 284.529545 225.955833 284.902071 226.893467 284.902071 
z
" style="fill:#ff0000;stroke:#ffffff;"/>
    <path clip-path="url(#pbda0ba5b5c)" d="M 142.168004 121.068638 
C 143.105638 121.068638 144.004996 120.696112 144.668004 120.033104 
C 145.331011 119.370096 145.703537 118.470738 145.703537 117.533104 
C 145.703537 116.595469 145.331011 115.696112 144.668004 115.033104 
C 144.004996 114.370096 143.105638 113.99757 142.168004 113.99757 
C 141.230369 113.99757 140.331011 114.370096 139.668004 115.033104 
C 139.004996 115.696112 138.63247 116.595469 138.63247 117.533104 
C 138.63247 118.470738 139.004996 119.370096 139.668004 120.033104 
C 140.331011 120.696112 141.230369 121.068638 142.168004 121.068638 
z
" style="stroke:#ffffff;"/>
    <path clip-path="url(#pbda0ba5b5c)" d="M 183.586796 213.596476 
C 184.52443 213.596476 185.423788 213.22395 186.086796 212.560943 
C 186.749803 211.897935 187.122329 210.998577 187.122329 210.060943 
C 187.122329 209.123308 186.749803 208.22395 186.086796 207.560943 
C 185.423788 206.897935 184.52443 206.525409 183.586796 206.525409 
C 182.649161 206.525409 181.749803 206.897935 181.086796 207.560943 
C 180.423788 208.22395 180.051262 209.123308 180.051262 210.060943 
C 180.051262 210.998577 180.423788 211.897935 181.086796 212.560943 
C 181.749803 213.22395 182.649161 213.596476 183.586796 213.596476 
z
" style="stroke:#ffffff;"/>
    <path clip-path="url(#pbda0ba5b5c)" d="M 214.897192 263.832503 
C 215.834827 263.832503 216.734184 263.459977 217.397192 262.79697 
C 218.0602 262.133962 218.432726 261.234604 218.432726 260.29697 
C 218.432726 259.359335 218.0602 258.459977 217.397192 257.79697 
C 216.734184 257.133962 215.834827 256.761436 214.897192 256.761436 
C 213.959557 256.761436 213.0602 257.133962 212.397192 257.79697 
C 211.734184 258.459977 211.361658 259.359335 211.361658 260.29697 
C 211.361658 261.234604 211.734184 262.133962 212.397192 262.79697 
C 213.0602 263.459977 213.959557 263.832503 214.897192 263.832503 
z
" style="stroke:#ffffff;"/>
    <path clip-path="url(#pbda0ba5b5c)" d="M 259.285613 301.019985 
C 260.223248 301.019985 261.122606 300.647459 261.785613 299.984451 
C 262.448621 299.321444 262.821147 298.422086 262.821147 297.484451 
C 262.821147 296.546817 262.448621 295.647459 261.785613 294.984451 
C 261.122606 294.321444 260.223248 293.948917 259.285613 293.948917 
C 258.347979 293.948917 257.448621 294.321444 256.785613 294.984451 
C 256.122606 295.647459 255.75008 296.546817 255.75008 297.484451 
C 255.75008 298.422086 256.122606 299.321444 256.785613 299.984451 
C 257.448621 300.647459 258.347979 301.019985 259.285613 301.019985 
z
" style="stroke:#ffffff;"/>
    <path clip-path="url(#pbda0ba5b5c)" d="M 292.445434 208.817447 
C 293.383069 208.817447 294.282427 208.444921 294.945434 207.781913 
C 295.608442 207.118905 295.980968 206.219548 295.980968 205.281913 
C 295.980968 204.344279 295.608442 203.444921 294.945434 202.781913 
C 294.282427 202.118905 293.383069 201.746379 292.445434 201.746379 
C 291.5078 201.746379 290.608442 202.118905 289.945434 202.781913 
C 289.282427 203.444921 288.909901 204.344279 288.909901 205.281913 
C 288.909901 206.219548 289.282427 207.118905 289.945434 207.781913 
C 290.608442 208.444921 291.5078 208.817447 292.445434 208.817447 
z
" style="stroke:#ffffff;"/>
    <path clip-path="url(#pbda0ba5b5c)" d="M 305.343566 201.343787 
C 306.2812 201.343787 307.180558 200.971261 307.843566 200.308253 
C 308.506574 199.645246 308.8791 198.745888 308.8791 197.808253 
C 308.8791 196.870619 308.506574 195.971261 307.843566 195.308253 
C 307.180558 194.645246 306.2812 194.27272 305.343566 194.27272 
C 304.405931 194.27272 303.506574 194.645246 302.843566 195.308253 
C 302.180558 195.971261 301.808032 196.870619 301.808032 197.808253 
C 301.808032 198.745888 302.180558 199.645246 302.843566 200.308253 
C 303.506574 200.971261 304.405931 201.343787 305.343566 201.343787 
z
" style="stroke:#ffffff;"/>
    <path clip-path="url(#pbda0ba5b5c)" d="M 419.559695 81.833207 
C 420.49733 81.833207 421.396687 81.460681 422.059695 80.797673 
C 422.722703 80.134665 423.095229 79.235307 423.095229 78.297673 
C 423.095229 77.360038 422.722703 76.460681 422.059695 75.797673 
C 421.396687 75.134665 420.49733 74.762139 419.559695 74.762139 
C 418.622061 74.762139 417.722703 75.134665 417.059695 75.797673 
C 416.396687 76.460681 416.024161 77.360038 416.024161 78.297673 
C 416.024161 79.235307 416.396687 80.134665 417.059695 80.797673 
C 417.722703 81.460681 418.622061 81.833207 419.559695 81.833207 
z
" style="stroke:#ffffff;"/>
    <path clip-path="url(#pbda0ba5b5c)" d="M 164.660801 103.107703 
C 165.598436 103.107703 166.497793 102.735177 167.160801 102.072169 
C 167.823809 101.409161 168.196335 100.509803 168.196335 99.572169 
C 168.196335 98.634534 167.823809 97.735177 167.160801 97.072169 
C 166.497793 96.409161 165.598436 96.036635 164.660801 96.036635 
C 163.723166 96.036635 162.823809 96.409161 162.160801 97.072169 
C 161.497793 97.735177 161.125267 98.634534 161.125267 99.572169 
C 161.125267 100.509803 161.497793 101.409161 162.160801 102.072169 
C 162.823809 102.735177 163.723166 103.107703 164.660801 103.107703 
z
" style="stroke:#ffffff;"/>
    <path clip-path="url(#pbda0ba5b5c)" d="M 180.56731 163.714447 
C 181.504944 163.714447 182.404302 163.341921 183.06731 162.678913 
C 183.730317 162.015905 184.102844 161.116548 184.102844 160.178913 
C 184.102844 159.241279 183.730317 158.341921 183.06731 157.678913 
C 182.404302 157.015905 181.504944 156.643379 180.56731 156.643379 
C 179.629675 156.643379 178.730317 157.015905 178.06731 157.678913 
C 177.404302 158.341921 177.031776 159.241279 177.031776 160.178913 
C 177.031776 161.116548 177.404302 162.015905 178.06731 162.678913 
C 178.730317 163.341921 179.629675 163.714447 180.56731 163.714447 
z
" style="stroke:#ffffff;"/>
    <path clip-path="url(#pbda0ba5b5c)" d="M 238.636453 196.934401 
C 239.574088 196.934401 240.473446 196.561875 241.136453 195.898867 
C 241.799461 195.23586 242.171987 194.336502 242.171987 193.398867 
C 242.171987 192.461233 241.799461 191.561875 241.136453 190.898867 
C 240.473446 190.23586 239.574088 189.863333 238.636453 189.863333 
C 237.698819 189.863333 236.799461 190.23586 236.136453 190.898867 
C 235.473446 191.561875 235.100919 192.461233 235.100919 193.398867 
C 235.100919 194.336502 235.473446 195.23586 236.136453 195.898867 
C 236.799461 196.561875 237.698819 196.934401 238.636453 196.934401 
z
" style="stroke:#ffffff;"/>
    <path clip-path="url(#pbda0ba5b5c)" d="M 429.335909 93.303698 
C 430.273544 93.303698 431.172901 92.931172 431.835909 92.268164 
C 432.498917 91.605157 432.871443 90.705799 432.871443 89.768164 
C 432.871443 88.83053 432.498917 87.931172 431.835909 87.268164 
C 431.172901 86.605157 430.273544 86.23263 429.335909 86.23263 
C 428.398275 86.23263 427.498917 86.605157 426.835909 87.268164 
C 426.172901 87.931172 425.800375 88.83053 425.800375 89.768164 
C 425.800375 90.705799 426.172901 91.605157 426.835909 92.268164 
C 427.498917 92.931172 428.398275 93.303698 429.335909 93.303698 
z
" style="stroke:#ffffff;"/>
    <path clip-path="url(#pbda0ba5b5c)" d="M 238.432374 307.41917 
C 239.370008 307.41917 240.269366 307.046644 240.932374 306.383636 
C 241.595381 305.720629 241.967907 304.821271 241.967907 303.883636 
C 241.967907 302.946002 241.595381 302.046644 240.932374 301.383636 
C 240.269366 300.720629 239.370008 300.348102 238.432374 300.348102 
C 237.494739 300.348102 236.595381 300.720629 235.932374 301.383636 
C 235.269366 302.046644 234.89684 302.946002 234.89684 303.883636 
C 234.89684 304.821271 235.269366 305.720629 235.932374 306.383636 
C 236.595381 307.046644 237.494739 307.41917 238.432374 307.41917 
z
" style="stroke:#ffffff;"/>
    <path clip-path="url(#pbda0ba5b5c)" d="M 184.580185 100.705809 
C 185.51782 100.705809 186.417178 100.333283 187.080185 99.670275 
C 187.743193 99.007268 188.115719 98.10791 188.115719 97.170275 
C 188.115719 96.232641 187.743193 95.333283 187.080185 94.670275 
C 186.417178 94.007268 185.51782 93.634741 184.580185 93.634741 
C 183.642551 93.634741 182.743193 94.007268 182.080185 94.670275 
C 181.417178 95.333283 181.044652 96.232641 181.044652 97.170275 
C 181.044652 98.10791 181.417178 99.007268 182.080185 99.670275 
C 182.743193 100.333283 183.642551 100.705809 184.580185 100.705809 
z
" style="stroke:#ffffff;"/>
    <path clip-path="url(#pbda0ba5b5c)" d="M 117.216312 214.948312 
C 118.153946 214.948312 119.053304 214.575786 119.716312 213.912778 
C 120.37932 213.249771 120.751846 212.350413 120.751846 211.412778 
C 120.751846 210.475144 120.37932 209.575786 119.716312 208.912778 
C 119.053304 208.249771 118.153946 207.877244 117.216312 207.877244 
C 116.278677 207.877244 115.37932 208.249771 114.716312 208.912778 
C 114.053304 209.575786 113.680778 210.475144 113.680778 211.412778 
C 113.680778 212.350413 114.053304 213.249771 114.716312 213.912778 
C 115.37932 214.575786 116.278677 214.948312 117.216312 214.948312 
z
" style="fill:#ff0000;stroke:#ffffff;"/>
    <path clip-path="url(#pbda0ba5b5c)" d="M 192.564176 110.797255 
C 193.501811 110.797255 194.401168 110.424729 195.064176 109.761721 
C 195.727184 109.098713 196.09971 108.199355 196.09971 107.261721 
C 196.09971 106.324086 195.727184 105.424729 195.064176 104.761721 
C 194.401168 104.098713 193.501811 103.726187 192.564176 103.726187 
C 191.626541 103.726187 190.727184 104.098713 190.064176 104.761721 
C 189.401168 105.424729 189.028642 106.324086 189.028642 107.261721 
C 189.028642 108.199355 189.401168 109.098713 190.064176 109.761721 
C 190.727184 110.424729 191.626541 110.797255 192.564176 110.797255 
z
" style="stroke:#ffffff;"/>
    <path clip-path="url(#pbda0ba5b5c)" d="M 213.317305 306.460283 
C 214.254939 306.460283 215.154297 306.087757 215.817305 305.42475 
C 216.480312 304.761742 216.852839 303.862384 216.852839 302.92475 
C 216.852839 301.987115 216.480312 301.087757 215.817305 300.42475 
C 215.154297 299.761742 214.254939 299.389216 213.317305 299.389216 
C 212.37967 299.389216 211.480312 299.761742 210.817305 300.42475 
C 210.154297 301.087757 209.781771 301.987115 209.781771 302.92475 
C 209.781771 303.862384 210.154297 304.761742 210.817305 305.42475 
C 211.480312 306.087757 212.37967 306.460283 213.317305 306.460283 
z
" style="stroke:#ffffff;"/>
    <path clip-path="url(#pbda0ba5b5c)" d="M 207.788829 53.358107 
C 208.726464 53.358107 209.625821 52.985581 210.288829 52.322573 
C 210.951837 51.659565 211.324363 50.760208 211.324363 49.822573 
C 211.324363 48.884938 210.951837 47.985581 210.288829 47.322573 
C 209.625821 46.659565 208.726464 46.287039 207.788829 46.287039 
C 206.851195 46.287039 205.951837 46.659565 205.288829 47.322573 
C 204.625821 47.985581 204.253295 48.884938 204.253295 49.822573 
C 204.253295 50.760208 204.625821 51.659565 205.288829 52.322573 
C 205.951837 52.985581 206.851195 53.358107 207.788829 53.358107 
z
" style="fill:#ff0000;stroke:#ffffff;"/>
    <path clip-path="url(#pbda0ba5b5c)" d="M 295.734579 182.462352 
C 296.672214 182.462352 297.571571 182.089826 298.234579 181.426818 
C 298.897587 180.763811 299.270113 179.864453 299.270113 178.926818 
C 299.270113 177.989184 298.897587 177.089826 298.234579 176.426818 
C 297.571571 175.763811 296.672214 175.391284 295.734579 175.391284 
C 294.796944 175.391284 293.897587 175.763811 293.234579 176.426818 
C 292.571571 177.089826 292.199045 177.989184 292.199045 178.926818 
C 292.199045 179.864453 292.571571 180.763811 293.234579 181.426818 
C 293.897587 182.089826 294.796944 182.462352 295.734579 182.462352 
z
" style="stroke:#ffffff;"/>
    <path clip-path="url(#pbda0ba5b5c)" d="M 150.09418 109.462138 
C 151.031815 109.462138 151.931172 109.089612 152.59418 108.426604 
C 153.257188 107.763597 153.629714 106.864239 153.629714 105.926604 
C 153.629714 104.98897 153.257188 104.089612 152.59418 103.426604 
C 151.931172 102.763597 151.031815 102.39107 150.09418 102.39107 
C 149.156545 102.39107 148.257188 102.763597 147.59418 103.426604 
C 146.931172 104.089612 146.558646 104.98897 146.558646 105.926604 
C 146.558646 106.864239 146.931172 107.763597 147.59418 108.426604 
C 148.257188 109.089612 149.156545 109.462138 150.09418 109.462138 
z
" style="stroke:#ffffff;"/>
    <path clip-path="url(#pbda0ba5b5c)" d="M 308.364705 191.589326 
C 309.302339 191.589326 310.201697 191.2168 310.864705 190.553792 
C 311.527713 189.890784 311.900239 188.991427 311.900239 188.053792 
C 311.900239 187.116157 311.527713 186.2168 310.864705 185.553792 
C 310.201697 184.890784 309.302339 184.518258 308.364705 184.518258 
C 307.42707 184.518258 306.527713 184.890784 305.864705 185.553792 
C 305.201697 186.2168 304.829171 187.116157 304.829171 188.053792 
C 304.829171 188.991427 305.201697 189.890784 305.864705 190.553792 
C 306.527713 191.2168 307.42707 191.589326 308.364705 191.589326 
z
" style="stroke:#ffffff;"/>
    <path clip-path="url(#pbda0ba5b5c)" d="M 339.651348 82.62541 
C 340.588982 82.62541 341.48834 82.252884 342.151348 81.589876 
C 342.814355 80.926868 343.186882 80.027511 343.186882 79.089876 
C 343.186882 78.152241 342.814355 77.252884 342.151348 76.589876 
C 341.48834 75.926868 340.588982 75.554342 339.651348 75.554342 
C 338.713713 75.554342 337.814355 75.926868 337.151348 76.589876 
C 336.48834 77.252884 336.115814 78.152241 336.115814 79.089876 
C 336.115814 80.027511 336.48834 80.926868 337.151348 81.589876 
C 337.814355 82.252884 338.713713 82.62541 339.651348 82.62541 
z
" style="fill:#ff0000;stroke:#ffffff;"/>
    <path clip-path="url(#pbda0ba5b5c)" d="M 117.387284 114.943117 
C 118.324919 114.943117 119.224277 114.570591 119.887284 113.907583 
C 120.550292 113.244575 120.922818 112.345217 120.922818 111.407583 
C 120.922818 110.469948 120.550292 109.570591 119.887284 108.907583 
C 119.224277 108.244575 118.324919 107.872049 117.387284 107.872049 
C 116.44965 107.872049 115.550292 108.244575 114.887284 108.907583 
C 114.224277 109.570591 113.85175 110.469948 113.85175 111.407583 
C 113.85175 112.345217 114.224277 113.244575 114.887284 113.907583 
C 115.550292 114.570591 116.44965 114.943117 117.387284 114.943117 
z
" style="fill:#ff0000;stroke:#ffffff;"/>
    <path clip-path="url(#pbda0ba5b5c)" d="M 211.889729 103.528076 
C 212.827363 103.528076 213.726721 103.15555 214.389729 102.492542 
C 215.052737 101.829535 215.425263 100.930177 215.425263 99.992542 
C 215.425263 99.054908 215.052737 98.15555 214.389729 97.492542 
C 213.726721 96.829535 212.827363 96.457009 211.889729 96.457009 
C 210.952094 96.457009 210.052737 96.829535 209.389729 97.492542 
C 208.726721 98.15555 208.354195 99.054908 208.354195 99.992542 
C 208.354195 100.930177 208.726721 101.829535 209.389729 102.492542 
C 210.052737 103.15555 210.952094 103.528076 211.889729 103.528076 
z
" style="stroke:#ffffff;"/>
    <path clip-path="url(#pbda0ba5b5c)" d="M 365.763376 113.148922 
C 366.70101 113.148922 367.600368 112.776396 368.263376 112.113388 
C 368.926384 111.45038 369.29891 110.551023 369.29891 109.613388 
C 369.29891 108.675754 368.926384 107.776396 368.263376 107.113388 
C 367.600368 106.45038 366.70101 106.077854 365.763376 106.077854 
C 364.825741 106.077854 363.926384 106.45038 363.263376 107.113388 
C 362.600368 107.776396 362.227842 108.675754 362.227842 109.613388 
C 362.227842 110.551023 362.600368 111.45038 363.263376 112.113388 
C 363.926384 112.776396 364.825741 113.148922 365.763376 113.148922 
z
" style="fill:#ff0000;stroke:#ffffff;"/>
    <path clip-path="url(#pbda0ba5b5c)" d="M 66.454091 106.917395 
C 67.391725 106.917395 68.291083 106.544869 68.954091 105.881861 
C 69.617099 105.218854 69.989625 104.319496 69.989625 103.381861 
C 69.989625 102.444227 69.617099 101.544869 68.954091 100.881861 
C 68.291083 100.218854 67.391725 99.846328 66.454091 99.846328 
C 65.516456 99.846328 64.617099 100.218854 63.954091 100.881861 
C 63.291083 101.544869 62.918557 102.444227 62.918557 103.381861 
C 62.918557 104.319496 63.291083 105.218854 63.954091 105.881861 
C 64.617099 106.544869 65.516456 106.917395 66.454091 106.917395 
z
" style="stroke:#ffffff;"/>
    <path clip-path="url(#pbda0ba5b5c)" d="M 78.595061 229.412577 
C 79.532696 229.412577 80.432053 229.040051 81.095061 228.377043 
C 81.758069 227.714035 82.130595 226.814677 82.130595 225.877043 
C 82.130595 224.939408 81.758069 224.040051 81.095061 223.377043 
C 80.432053 222.714035 79.532696 222.341509 78.595061 222.341509 
C 77.657426 222.341509 76.758069 222.714035 76.095061 223.377043 
C 75.432053 224.040051 75.059527 224.939408 75.059527 225.877043 
C 75.059527 226.814677 75.432053 227.714035 76.095061 228.377043 
C 76.758069 229.040051 77.657426 229.412577 78.595061 229.412577 
z
" style="stroke:#ffffff;"/>
    <path clip-path="url(#pbda0ba5b5c)" d="M 158.768037 214.58813 
C 159.705672 214.58813 160.60503 214.215604 161.268037 213.552596 
C 161.931045 212.889588 162.303571 211.990231 162.303571 211.052596 
C 162.303571 210.114962 161.931045 209.215604 161.268037 208.552596 
C 160.60503 207.889588 159.705672 207.517062 158.768037 207.517062 
C 157.830403 207.517062 156.931045 207.889588 156.268037 208.552596 
C 155.60503 209.215604 155.232503 210.114962 155.232503 211.052596 
C 155.232503 211.990231 155.60503 212.889588 156.268037 213.552596 
C 156.931045 214.215604 157.830403 214.58813 158.768037 214.58813 
z
" style="stroke:#ffffff;"/>
    <path clip-path="url(#pbda0ba5b5c)" d="M 212.91826 30.691898 
C 213.855895 30.691898 214.755253 30.319371 215.41826 29.656364 
C 216.081268 28.993356 216.453794 28.093998 216.453794 27.156364 
C 216.453794 26.218729 216.081268 25.319371 215.41826 24.656364 
C 214.755253 23.993356 213.855895 23.62083 212.91826 23.62083 
C 211.980626 23.62083 211.081268 23.993356 210.41826 24.656364 
C 209.755253 25.319371 209.382726 26.218729 209.382726 27.156364 
C 209.382726 28.093998 209.755253 28.993356 210.41826 29.656364 
C 211.081268 30.319371 211.980626 30.691898 212.91826 30.691898 
z
" style="stroke:#ffffff;"/>
    <path clip-path="url(#pbda0ba5b5c)" d="M 138.107812 190.866843 
C 139.045447 190.866843 139.944804 190.494317 140.607812 189.83131 
C 141.27082 189.168302 141.643346 188.268944 141.643346 187.33131 
C 141.643346 186.393675 141.27082 185.494317 140.607812 184.83131 
C 139.944804 184.168302 139.045447 183.795776 138.107812 183.795776 
C 137.170178 183.795776 136.27082 184.168302 135.607812 184.83131 
C 134.944804 185.494317 134.572278 186.393675 134.572278 187.33131 
C 134.572278 188.268944 134.944804 189.168302 135.607812 189.83131 
C 136.27082 190.494317 137.170178 190.866843 138.107812 190.866843 
z
" style="stroke:#ffffff;"/>
    <path clip-path="url(#pbda0ba5b5c)" d="M 365.256028 63.628392 
C 366.193663 63.628392 367.09302 63.255866 367.756028 62.592858 
C 368.419036 61.92985 368.791562 61.030492 368.791562 60.092858 
C 368.791562 59.155223 368.419036 58.255866 367.756028 57.592858 
C 367.09302 56.92985 366.193663 56.557324 365.256028 56.557324 
C 364.318394 56.557324 363.419036 56.92985 362.756028 57.592858 
C 362.09302 58.255866 361.720494 59.155223 361.720494 60.092858 
C 361.720494 61.030492 362.09302 61.92985 362.756028 62.592858 
C 363.419036 63.255866 364.318394 63.628392 365.256028 63.628392 
z
" style="stroke:#ffffff;"/>
    <path clip-path="url(#pbda0ba5b5c)" d="M 180.233366 265.21054 
C 181.171 265.21054 182.070358 264.838014 182.733366 264.175006 
C 183.396374 263.511998 183.7689 262.612641 183.7689 261.675006 
C 183.7689 260.737371 183.396374 259.838014 182.733366 259.175006 
C 182.070358 258.511998 181.171 258.139472 180.233366 258.139472 
C 179.295731 258.139472 178.396374 258.511998 177.733366 259.175006 
C 177.070358 259.838014 176.697832 260.737371 176.697832 261.675006 
C 176.697832 262.612641 177.070358 263.511998 177.733366 264.175006 
C 178.396374 264.838014 179.295731 265.21054 180.233366 265.21054 
z
" style="stroke:#ffffff;"/>
    <path clip-path="url(#pbda0ba5b5c)" d="M 412.662825 117.502979 
C 413.60046 117.502979 414.499817 117.130453 415.162825 116.467445 
C 415.825833 115.804437 416.198359 114.905079 416.198359 113.967445 
C 416.198359 113.02981 415.825833 112.130453 415.162825 111.467445 
C 414.499817 110.804437 413.60046 110.431911 412.662825 110.431911 
C 411.72519 110.431911 410.825833 110.804437 410.162825 111.467445 
C 409.499817 112.130453 409.127291 113.02981 409.127291 113.967445 
C 409.127291 114.905079 409.499817 115.804437 410.162825 116.467445 
C 410.825833 117.130453 411.72519 117.502979 412.662825 117.502979 
z
" style="stroke:#ffffff;"/>
   </g>
  </g>
 </g>
 <defs>
  <clipPath id="pbda0ba5b5c">
   <rect height="304.4" width="399.17" x="48.31" y="13.32"/>
  </clipPath>
 </defs>
</svg>
